<mxfile host="app.diagrams.net" modified="2023-04-10T11:38:10.055Z" agent="Mozilla/5.0 (Windows NT 10.0; Win64; x64) AppleWebKit/537.36 (KHTML, like Gecko) Chrome/111.0.0.0 Safari/537.36" version="21.1.5" etag="AMG_hFWFtZdVAXmGayju" type="device">
  <diagram id="nCAsFgrhm86kZqXoeG8h" name="페이지-1">
    <mxGraphModel dx="1897" dy="-184" grid="1" gridSize="10" guides="1" tooltips="1" connect="1" arrows="1" fold="1" page="1" pageScale="1" pageWidth="1920" pageHeight="1200" math="0" shadow="0">
      <root>
        <mxCell id="0" />
        <mxCell id="1" parent="0" />
        <mxCell id="RekpaDabbU6XKIs6PFDg-1" value="" style="rounded=0;whiteSpace=wrap;html=1;fillColor=#CCCCCC;shadow=1;" vertex="1" parent="1">
          <mxGeometry x="1257.5" y="1446" width="482.5" height="710" as="geometry" />
        </mxCell>
        <mxCell id="RekpaDabbU6XKIs6PFDg-2" value="" style="rounded=0;whiteSpace=wrap;html=1;fillColor=#CCCCCC;shadow=1;" vertex="1" parent="1">
          <mxGeometry x="662" y="1446" width="583" height="710" as="geometry" />
        </mxCell>
        <mxCell id="RekpaDabbU6XKIs6PFDg-3" value="" style="rounded=0;whiteSpace=wrap;html=1;fillColor=#CCCCCC;shadow=1;" vertex="1" parent="1">
          <mxGeometry x="67" y="1446" width="583" height="710" as="geometry" />
        </mxCell>
        <mxCell id="RekpaDabbU6XKIs6PFDg-4" value="" style="rounded=0;whiteSpace=wrap;html=1;fillColor=#FFFFCC;" vertex="1" parent="1">
          <mxGeometry x="1515.5" y="1698" width="200" height="345" as="geometry" />
        </mxCell>
        <mxCell id="RekpaDabbU6XKIs6PFDg-5" value="" style="edgeStyle=orthogonalEdgeStyle;rounded=0;orthogonalLoop=1;jettySize=auto;html=1;" edge="1" parent="1" source="RekpaDabbU6XKIs6PFDg-6" target="RekpaDabbU6XKIs6PFDg-27">
          <mxGeometry relative="1" as="geometry" />
        </mxCell>
        <mxCell id="RekpaDabbU6XKIs6PFDg-6" value="Master Start" style="ellipse;whiteSpace=wrap;html=1;fillColor=#FFFFFF;" vertex="1" parent="1">
          <mxGeometry x="940.5" y="1470" width="120" height="40" as="geometry" />
        </mxCell>
        <mxCell id="RekpaDabbU6XKIs6PFDg-7" style="edgeStyle=orthogonalEdgeStyle;rounded=0;orthogonalLoop=1;jettySize=auto;html=1;entryX=0.5;entryY=0;entryDx=0;entryDy=0;" edge="1" parent="1" source="RekpaDabbU6XKIs6PFDg-8" target="RekpaDabbU6XKIs6PFDg-11">
          <mxGeometry relative="1" as="geometry" />
        </mxCell>
        <mxCell id="RekpaDabbU6XKIs6PFDg-8" value="타이머 실행" style="html=1;whiteSpace=wrap;fillColor=#00CCCC;" vertex="1" parent="1">
          <mxGeometry x="945.5" y="1590" width="110" height="40" as="geometry" />
        </mxCell>
        <mxCell id="RekpaDabbU6XKIs6PFDg-9" value="" style="rounded=0;whiteSpace=wrap;html=1;fillColor=#FFFFCC;" vertex="1" parent="1">
          <mxGeometry x="692" y="1818" width="202" height="302" as="geometry" />
        </mxCell>
        <mxCell id="RekpaDabbU6XKIs6PFDg-10" value="&lt;font style=&quot;font-size: 10px;&quot;&gt;Interrupt routine&lt;/font&gt;" style="text;html=1;strokeColor=none;fillColor=none;align=center;verticalAlign=middle;whiteSpace=wrap;rounded=0;" vertex="1" parent="1">
          <mxGeometry x="692" y="1793" width="80" height="30" as="geometry" />
        </mxCell>
        <mxCell id="RekpaDabbU6XKIs6PFDg-11" value="" style="rounded=0;whiteSpace=wrap;html=1;fillColor=#FFFFCC;" vertex="1" parent="1">
          <mxGeometry x="692" y="1653" width="200" height="140" as="geometry" />
        </mxCell>
        <mxCell id="RekpaDabbU6XKIs6PFDg-12" value="Timer overflow" style="rhombus;whiteSpace=wrap;html=1;fillColor=#00CCCC;" vertex="1" parent="1">
          <mxGeometry x="714" y="1718" width="120" height="55" as="geometry" />
        </mxCell>
        <mxCell id="RekpaDabbU6XKIs6PFDg-13" value="Timer increase" style="rounded=0;whiteSpace=wrap;html=1;fillColor=#00CCCC;" vertex="1" parent="1">
          <mxGeometry x="714" y="1668" width="120" height="30" as="geometry" />
        </mxCell>
        <mxCell id="RekpaDabbU6XKIs6PFDg-14" value="" style="endArrow=classic;html=1;rounded=0;exitX=0.5;exitY=1;exitDx=0;exitDy=0;" edge="1" parent="1" source="RekpaDabbU6XKIs6PFDg-12">
          <mxGeometry relative="1" as="geometry">
            <mxPoint x="694" y="1788" as="sourcePoint" />
            <mxPoint x="774" y="1818" as="targetPoint" />
          </mxGeometry>
        </mxCell>
        <mxCell id="RekpaDabbU6XKIs6PFDg-15" value="" style="endArrow=classic;html=1;rounded=0;exitX=1;exitY=0.5;exitDx=0;exitDy=0;entryX=1;entryY=0.5;entryDx=0;entryDy=0;" edge="1" parent="1" source="RekpaDabbU6XKIs6PFDg-12" target="RekpaDabbU6XKIs6PFDg-20">
          <mxGeometry relative="1" as="geometry">
            <mxPoint x="704" y="1778" as="sourcePoint" />
            <mxPoint x="874" y="1746" as="targetPoint" />
            <Array as="points">
              <mxPoint x="872" y="1746" />
              <mxPoint x="872" y="1683" />
            </Array>
          </mxGeometry>
        </mxCell>
        <mxCell id="RekpaDabbU6XKIs6PFDg-16" value="&lt;span style=&quot;font-size: 10px;&quot;&gt;NO&lt;/span&gt;" style="text;html=1;strokeColor=none;fillColor=none;align=center;verticalAlign=middle;whiteSpace=wrap;rounded=0;" vertex="1" parent="1">
          <mxGeometry x="822" y="1720" width="60" height="30" as="geometry" />
        </mxCell>
        <mxCell id="RekpaDabbU6XKIs6PFDg-17" value="&lt;span style=&quot;font-size: 10px;&quot;&gt;YES&lt;/span&gt;" style="text;html=1;strokeColor=none;fillColor=none;align=center;verticalAlign=middle;whiteSpace=wrap;rounded=0;" vertex="1" parent="1">
          <mxGeometry x="762" y="1767" width="60" height="30" as="geometry" />
        </mxCell>
        <mxCell id="RekpaDabbU6XKIs6PFDg-18" value="&lt;font style=&quot;font-size: 10px;&quot;&gt;Timer_1&lt;/font&gt;" style="text;html=1;strokeColor=none;fillColor=none;align=center;verticalAlign=middle;whiteSpace=wrap;rounded=0;" vertex="1" parent="1">
          <mxGeometry x="692" y="1628" width="90" height="30" as="geometry" />
        </mxCell>
        <mxCell id="RekpaDabbU6XKIs6PFDg-19" value="Timer overflow" style="rhombus;whiteSpace=wrap;html=1;fillColor=#00CCCC;" vertex="1" parent="1">
          <mxGeometry x="714" y="1718" width="120" height="55" as="geometry" />
        </mxCell>
        <mxCell id="RekpaDabbU6XKIs6PFDg-20" value="Timer increase" style="rounded=0;whiteSpace=wrap;html=1;fillColor=#00CCCC;" vertex="1" parent="1">
          <mxGeometry x="714" y="1668" width="120" height="30" as="geometry" />
        </mxCell>
        <mxCell id="RekpaDabbU6XKIs6PFDg-21" value="Watchdog 체크" style="rounded=0;whiteSpace=wrap;html=1;fillColor=#00CCCC;" vertex="1" parent="1">
          <mxGeometry x="714" y="1833" width="120" height="40" as="geometry" />
        </mxCell>
        <mxCell id="RekpaDabbU6XKIs6PFDg-22" value="" style="endArrow=classic;html=1;rounded=0;exitX=0.5;exitY=1;exitDx=0;exitDy=0;entryX=0.5;entryY=0;entryDx=0;entryDy=0;" edge="1" parent="1" source="RekpaDabbU6XKIs6PFDg-20" target="RekpaDabbU6XKIs6PFDg-19">
          <mxGeometry width="50" height="50" relative="1" as="geometry">
            <mxPoint x="794" y="1793" as="sourcePoint" />
            <mxPoint x="844" y="1743" as="targetPoint" />
          </mxGeometry>
        </mxCell>
        <mxCell id="RekpaDabbU6XKIs6PFDg-23" value="" style="edgeStyle=orthogonalEdgeStyle;rounded=0;orthogonalLoop=1;jettySize=auto;html=1;" edge="1" parent="1" source="RekpaDabbU6XKIs6PFDg-24" target="RekpaDabbU6XKIs6PFDg-38">
          <mxGeometry relative="1" as="geometry" />
        </mxCell>
        <mxCell id="RekpaDabbU6XKIs6PFDg-24" value="PC에서 SWITCH INPUT DATA 수신&lt;span style=&quot;font-size: 11px; background-color: rgb(255, 255, 255);&quot;&gt;&lt;br&gt;&lt;/span&gt;" style="rounded=0;whiteSpace=wrap;html=1;fillColor=#FF9933;" vertex="1" parent="1">
          <mxGeometry x="714" y="1888" width="120" height="36" as="geometry" />
        </mxCell>
        <mxCell id="RekpaDabbU6XKIs6PFDg-25" value="" style="endArrow=classic;html=1;rounded=0;exitX=0.5;exitY=1;exitDx=0;exitDy=0;" edge="1" parent="1" source="RekpaDabbU6XKIs6PFDg-21" target="RekpaDabbU6XKIs6PFDg-24">
          <mxGeometry width="50" height="50" relative="1" as="geometry">
            <mxPoint x="572" y="1883" as="sourcePoint" />
            <mxPoint x="572" y="1897" as="targetPoint" />
          </mxGeometry>
        </mxCell>
        <mxCell id="RekpaDabbU6XKIs6PFDg-26" style="edgeStyle=orthogonalEdgeStyle;rounded=0;orthogonalLoop=1;jettySize=auto;html=1;entryX=0.5;entryY=0;entryDx=0;entryDy=0;" edge="1" parent="1" source="RekpaDabbU6XKIs6PFDg-27" target="RekpaDabbU6XKIs6PFDg-8">
          <mxGeometry relative="1" as="geometry" />
        </mxCell>
        <mxCell id="RekpaDabbU6XKIs6PFDg-27" value="INITIALIZE,PIN,&lt;br style=&quot;border-color: var(--border-color);&quot;&gt;watchdog설정" style="html=1;whiteSpace=wrap;fillColor=#00CCCC;" vertex="1" parent="1">
          <mxGeometry x="945.5" y="1530" width="110" height="40" as="geometry" />
        </mxCell>
        <mxCell id="RekpaDabbU6XKIs6PFDg-28" value="&lt;span style=&quot;font-size: 48px;&quot;&gt;Master&lt;/span&gt;" style="text;html=1;strokeColor=none;fillColor=none;align=center;verticalAlign=middle;whiteSpace=wrap;rounded=0;" vertex="1" parent="1">
          <mxGeometry x="712" y="1460" width="60" height="30" as="geometry" />
        </mxCell>
        <mxCell id="RekpaDabbU6XKIs6PFDg-29" value="LOOP" style="text;html=1;strokeColor=none;fillColor=none;align=center;verticalAlign=middle;whiteSpace=wrap;rounded=0;" vertex="1" parent="1">
          <mxGeometry x="822" y="1610" width="60" height="30" as="geometry" />
        </mxCell>
        <mxCell id="RekpaDabbU6XKIs6PFDg-30" style="edgeStyle=orthogonalEdgeStyle;rounded=0;orthogonalLoop=1;jettySize=auto;html=1;entryX=0.5;entryY=0;entryDx=0;entryDy=0;" edge="1" parent="1" source="RekpaDabbU6XKIs6PFDg-31" target="RekpaDabbU6XKIs6PFDg-34">
          <mxGeometry relative="1" as="geometry">
            <Array as="points">
              <mxPoint x="774.5" y="2056" />
              <mxPoint x="747.5" y="2056" />
            </Array>
          </mxGeometry>
        </mxCell>
        <mxCell id="RekpaDabbU6XKIs6PFDg-31" value="flag == 2&lt;br&gt;(송신 완료)" style="rhombus;whiteSpace=wrap;html=1;fillColor=#00CCCC;" vertex="1" parent="1">
          <mxGeometry x="714" y="1991.5" width="120" height="55" as="geometry" />
        </mxCell>
        <mxCell id="RekpaDabbU6XKIs6PFDg-32" value="&lt;span style=&quot;font-size: 10px;&quot;&gt;YES&lt;/span&gt;" style="text;html=1;strokeColor=none;fillColor=none;align=center;verticalAlign=middle;whiteSpace=wrap;rounded=0;" vertex="1" parent="1">
          <mxGeometry x="700.5" y="2030" width="60" height="30" as="geometry" />
        </mxCell>
        <mxCell id="RekpaDabbU6XKIs6PFDg-33" value="&lt;span style=&quot;font-size: 10px;&quot;&gt;NO&lt;/span&gt;" style="text;html=1;strokeColor=none;fillColor=none;align=center;verticalAlign=middle;whiteSpace=wrap;rounded=0;" vertex="1" parent="1">
          <mxGeometry x="809.5" y="1990" width="60" height="30" as="geometry" />
        </mxCell>
        <mxCell id="RekpaDabbU6XKIs6PFDg-34" value="flag=3&lt;br&gt;(수신 시작)&lt;span style=&quot;font-size: 11px; background-color: rgb(255, 255, 255);&quot;&gt;&lt;br&gt;&lt;/span&gt;" style="rounded=0;whiteSpace=wrap;html=1;fillColor=#00CCCC;" vertex="1" parent="1">
          <mxGeometry x="714" y="2070" width="66.5" height="36" as="geometry" />
        </mxCell>
        <mxCell id="RekpaDabbU6XKIs6PFDg-35" value="flag=1&lt;br&gt;(송신 시작)&lt;span style=&quot;font-size: 11px; background-color: rgb(255, 255, 255);&quot;&gt;&lt;br&gt;&lt;/span&gt;" style="rounded=0;whiteSpace=wrap;html=1;fillColor=#00CCCC;" vertex="1" parent="1">
          <mxGeometry x="782" y="2070" width="66.5" height="36" as="geometry" />
        </mxCell>
        <mxCell id="RekpaDabbU6XKIs6PFDg-36" value="" style="endArrow=classic;html=1;rounded=0;exitX=0.405;exitY=0.967;exitDx=0;exitDy=0;exitPerimeter=0;entryX=0.5;entryY=0;entryDx=0;entryDy=0;" edge="1" parent="1" source="RekpaDabbU6XKIs6PFDg-33" target="RekpaDabbU6XKIs6PFDg-35">
          <mxGeometry width="50" height="50" relative="1" as="geometry">
            <mxPoint x="820.5" y="2080" as="sourcePoint" />
            <mxPoint x="870.5" y="2030" as="targetPoint" />
            <Array as="points">
              <mxPoint x="843.5" y="2019" />
              <mxPoint x="843.5" y="2055" />
              <mxPoint x="815.5" y="2055" />
            </Array>
          </mxGeometry>
        </mxCell>
        <mxCell id="RekpaDabbU6XKIs6PFDg-37" style="edgeStyle=orthogonalEdgeStyle;rounded=0;orthogonalLoop=1;jettySize=auto;html=1;entryX=0;entryY=0.5;entryDx=0;entryDy=0;" edge="1" parent="1" source="RekpaDabbU6XKIs6PFDg-38" target="RekpaDabbU6XKIs6PFDg-72">
          <mxGeometry relative="1" as="geometry">
            <Array as="points">
              <mxPoint x="860" y="1958" />
              <mxPoint x="860" y="2020" />
              <mxPoint x="1490" y="2020" />
              <mxPoint x="1490" y="1738" />
            </Array>
          </mxGeometry>
        </mxCell>
        <mxCell id="RekpaDabbU6XKIs6PFDg-38" value="PC에 ADC, BUTTON&amp;nbsp; DATA 송신&lt;span style=&quot;font-size: 11px; background-color: rgb(255, 255, 255);&quot;&gt;&lt;br&gt;&lt;/span&gt;" style="rounded=0;whiteSpace=wrap;html=1;fillColor=#00CC66;" vertex="1" parent="1">
          <mxGeometry x="714" y="1940" width="120" height="36" as="geometry" />
        </mxCell>
        <mxCell id="RekpaDabbU6XKIs6PFDg-39" value="" style="endArrow=classic;html=1;rounded=0;exitX=0.5;exitY=1;exitDx=0;exitDy=0;entryX=0.5;entryY=0;entryDx=0;entryDy=0;" edge="1" parent="1" source="RekpaDabbU6XKIs6PFDg-38" target="RekpaDabbU6XKIs6PFDg-31">
          <mxGeometry width="50" height="50" relative="1" as="geometry">
            <mxPoint x="750.5" y="2040" as="sourcePoint" />
            <mxPoint x="800.5" y="1990" as="targetPoint" />
          </mxGeometry>
        </mxCell>
        <mxCell id="RekpaDabbU6XKIs6PFDg-40" value="" style="edgeStyle=orthogonalEdgeStyle;rounded=0;orthogonalLoop=1;jettySize=auto;html=1;" edge="1" parent="1" source="RekpaDabbU6XKIs6PFDg-42" target="RekpaDabbU6XKIs6PFDg-47">
          <mxGeometry relative="1" as="geometry" />
        </mxCell>
        <mxCell id="RekpaDabbU6XKIs6PFDg-41" value="" style="edgeStyle=orthogonalEdgeStyle;rounded=0;orthogonalLoop=1;jettySize=auto;html=1;" edge="1" parent="1" source="RekpaDabbU6XKIs6PFDg-42" target="RekpaDabbU6XKIs6PFDg-165">
          <mxGeometry relative="1" as="geometry" />
        </mxCell>
        <mxCell id="RekpaDabbU6XKIs6PFDg-42" value="flag == 1&lt;br&gt;(송신 시작)" style="rhombus;whiteSpace=wrap;html=1;fillColor=#00CCCC;" vertex="1" parent="1">
          <mxGeometry x="941" y="1689.5" width="120" height="55" as="geometry" />
        </mxCell>
        <mxCell id="RekpaDabbU6XKIs6PFDg-43" value="&lt;span style=&quot;font-size: 10px;&quot;&gt;YES&lt;/span&gt;" style="text;html=1;strokeColor=none;fillColor=none;align=center;verticalAlign=middle;whiteSpace=wrap;rounded=0;" vertex="1" parent="1">
          <mxGeometry x="972.5" y="1740" width="25" height="30" as="geometry" />
        </mxCell>
        <mxCell id="RekpaDabbU6XKIs6PFDg-44" value="&lt;span style=&quot;font-size: 10px;&quot;&gt;NO&lt;/span&gt;" style="text;html=1;strokeColor=none;fillColor=none;align=center;verticalAlign=middle;whiteSpace=wrap;rounded=0;" vertex="1" parent="1">
          <mxGeometry x="1037.5" y="1688" width="60" height="30" as="geometry" />
        </mxCell>
        <mxCell id="RekpaDabbU6XKIs6PFDg-45" style="edgeStyle=orthogonalEdgeStyle;rounded=0;orthogonalLoop=1;jettySize=auto;html=1;" edge="1" parent="1" source="RekpaDabbU6XKIs6PFDg-47">
          <mxGeometry relative="1" as="geometry">
            <mxPoint x="1000.5" y="1650" as="targetPoint" />
            <Array as="points">
              <mxPoint x="1230.5" y="1717" />
              <mxPoint x="1230.5" y="1650" />
            </Array>
          </mxGeometry>
        </mxCell>
        <mxCell id="RekpaDabbU6XKIs6PFDg-46" value="" style="edgeStyle=orthogonalEdgeStyle;rounded=0;orthogonalLoop=1;jettySize=auto;html=1;" edge="1" parent="1" source="RekpaDabbU6XKIs6PFDg-47" target="RekpaDabbU6XKIs6PFDg-55">
          <mxGeometry relative="1" as="geometry" />
        </mxCell>
        <mxCell id="RekpaDabbU6XKIs6PFDg-47" value="flag == 1&lt;br&gt;(송신 시작)" style="rhombus;whiteSpace=wrap;html=1;fillColor=#00CCCC;" vertex="1" parent="1">
          <mxGeometry x="1077.5" y="1689.5" width="120" height="55" as="geometry" />
        </mxCell>
        <mxCell id="RekpaDabbU6XKIs6PFDg-48" value="&lt;span style=&quot;font-size: 10px;&quot;&gt;NO&lt;/span&gt;" style="text;html=1;strokeColor=none;fillColor=none;align=center;verticalAlign=middle;whiteSpace=wrap;rounded=0;" vertex="1" parent="1">
          <mxGeometry x="1202.5" y="1699" width="20" height="8" as="geometry" />
        </mxCell>
        <mxCell id="RekpaDabbU6XKIs6PFDg-49" value="" style="endArrow=classic;html=1;rounded=0;exitX=0.508;exitY=0.997;exitDx=0;exitDy=0;entryX=0.5;entryY=0;entryDx=0;entryDy=0;exitPerimeter=0;" edge="1" parent="1" source="RekpaDabbU6XKIs6PFDg-8" target="RekpaDabbU6XKIs6PFDg-42">
          <mxGeometry width="50" height="50" relative="1" as="geometry">
            <mxPoint x="1060.5" y="1790" as="sourcePoint" />
            <mxPoint x="1110.5" y="1740" as="targetPoint" />
          </mxGeometry>
        </mxCell>
        <mxCell id="RekpaDabbU6XKIs6PFDg-50" style="edgeStyle=orthogonalEdgeStyle;rounded=0;orthogonalLoop=1;jettySize=auto;html=1;" edge="1" parent="1" source="RekpaDabbU6XKIs6PFDg-53">
          <mxGeometry relative="1" as="geometry">
            <mxPoint x="1230.5" y="1717" as="targetPoint" />
            <Array as="points">
              <mxPoint x="1001.5" y="1990" />
              <mxPoint x="1230.5" y="1990" />
            </Array>
          </mxGeometry>
        </mxCell>
        <mxCell id="RekpaDabbU6XKIs6PFDg-51" style="edgeStyle=orthogonalEdgeStyle;rounded=0;orthogonalLoop=1;jettySize=auto;html=1;" edge="1" parent="1" source="RekpaDabbU6XKIs6PFDg-53">
          <mxGeometry relative="1" as="geometry">
            <mxPoint x="610" y="1840" as="targetPoint" />
            <Array as="points">
              <mxPoint x="1001" y="2130" />
              <mxPoint x="640" y="2130" />
              <mxPoint x="640" y="1840" />
            </Array>
          </mxGeometry>
        </mxCell>
        <mxCell id="RekpaDabbU6XKIs6PFDg-52" style="edgeStyle=orthogonalEdgeStyle;rounded=0;orthogonalLoop=1;jettySize=auto;html=1;" edge="1" parent="1" source="RekpaDabbU6XKIs6PFDg-53">
          <mxGeometry relative="1" as="geometry">
            <mxPoint x="1001" y="1990" as="targetPoint" />
          </mxGeometry>
        </mxCell>
        <mxCell id="RekpaDabbU6XKIs6PFDg-53" value="SLAVE에 SWITCH INPUT DATA 송신" style="rounded=0;whiteSpace=wrap;html=1;fillColor=#FF0080;" vertex="1" parent="1">
          <mxGeometry x="941" y="1838" width="120" height="40" as="geometry" />
        </mxCell>
        <mxCell id="RekpaDabbU6XKIs6PFDg-54" style="edgeStyle=orthogonalEdgeStyle;rounded=0;orthogonalLoop=1;jettySize=auto;html=1;entryX=0.5;entryY=0;entryDx=0;entryDy=0;" edge="1" parent="1" source="RekpaDabbU6XKIs6PFDg-55" target="RekpaDabbU6XKIs6PFDg-58">
          <mxGeometry relative="1" as="geometry" />
        </mxCell>
        <mxCell id="RekpaDabbU6XKIs6PFDg-55" value="Ring-Buffer에 &lt;br&gt;SLAVE에서 받은 통신 내용 저장" style="rounded=0;whiteSpace=wrap;html=1;fillColor=#FFFF33;" vertex="1" parent="1">
          <mxGeometry x="1077.5" y="1770" width="120" height="60" as="geometry" />
        </mxCell>
        <mxCell id="RekpaDabbU6XKIs6PFDg-56" value="&lt;span style=&quot;font-size: 10px;&quot;&gt;YES&lt;/span&gt;" style="text;html=1;strokeColor=none;fillColor=none;align=center;verticalAlign=middle;whiteSpace=wrap;rounded=0;" vertex="1" parent="1">
          <mxGeometry x="1105.5" y="1740" width="25" height="30" as="geometry" />
        </mxCell>
        <mxCell id="RekpaDabbU6XKIs6PFDg-57" value="" style="edgeStyle=orthogonalEdgeStyle;rounded=0;orthogonalLoop=1;jettySize=auto;html=1;" edge="1" parent="1" source="RekpaDabbU6XKIs6PFDg-58" target="RekpaDabbU6XKIs6PFDg-61">
          <mxGeometry relative="1" as="geometry" />
        </mxCell>
        <mxCell id="RekpaDabbU6XKIs6PFDg-58" value="MODBUS-CRC16 &lt;br&gt;확인" style="rounded=0;whiteSpace=wrap;html=1;fillColor=#00CCCC;" vertex="1" parent="1">
          <mxGeometry x="1077.5" y="1850" width="120" height="40" as="geometry" />
        </mxCell>
        <mxCell id="RekpaDabbU6XKIs6PFDg-59" style="edgeStyle=orthogonalEdgeStyle;rounded=0;orthogonalLoop=1;jettySize=auto;html=1;" edge="1" parent="1" source="RekpaDabbU6XKIs6PFDg-61">
          <mxGeometry relative="1" as="geometry">
            <mxPoint x="1137.5" y="1990" as="targetPoint" />
          </mxGeometry>
        </mxCell>
        <mxCell id="RekpaDabbU6XKIs6PFDg-60" style="edgeStyle=orthogonalEdgeStyle;rounded=0;orthogonalLoop=1;jettySize=auto;html=1;entryX=1;entryY=0.25;entryDx=0;entryDy=0;" edge="1" parent="1">
          <mxGeometry relative="1" as="geometry">
            <mxPoint x="1077.5" y="1949.0476190476188" as="sourcePoint" />
            <mxPoint x="834" y="1948" as="targetPoint" />
            <Array as="points">
              <mxPoint x="1020" y="1949" />
            </Array>
          </mxGeometry>
        </mxCell>
        <mxCell id="RekpaDabbU6XKIs6PFDg-61" value="ADC, BUTTON DATA PC송신 규격에 &lt;br&gt;맞게 저장" style="rounded=0;whiteSpace=wrap;html=1;fillColor=#00CCCC;" vertex="1" parent="1">
          <mxGeometry x="1077.5" y="1910" width="120" height="50" as="geometry" />
        </mxCell>
        <mxCell id="RekpaDabbU6XKIs6PFDg-62" value="Proccessing" style="ellipse;whiteSpace=wrap;html=1;fillColor=#FFFFFF;" vertex="1" parent="1">
          <mxGeometry x="1597.5" y="1473" width="120" height="40" as="geometry" />
        </mxCell>
        <mxCell id="RekpaDabbU6XKIs6PFDg-63" value="" style="edgeStyle=segmentEdgeStyle;endArrow=classic;html=1;curved=0;rounded=0;endSize=8;startSize=8;exitX=0.5;exitY=1;exitDx=0;exitDy=0;fillColor=#00CCCC;" edge="1" parent="1" source="RekpaDabbU6XKIs6PFDg-62">
          <mxGeometry width="50" height="50" relative="1" as="geometry">
            <mxPoint x="1557.5" y="1683" as="sourcePoint" />
            <mxPoint x="1657.5" y="1543" as="targetPoint" />
          </mxGeometry>
        </mxCell>
        <mxCell id="RekpaDabbU6XKIs6PFDg-64" value="" style="edgeStyle=orthogonalEdgeStyle;rounded=0;orthogonalLoop=1;jettySize=auto;html=1;" edge="1" parent="1" source="RekpaDabbU6XKIs6PFDg-65" target="RekpaDabbU6XKIs6PFDg-67">
          <mxGeometry relative="1" as="geometry" />
        </mxCell>
        <mxCell id="RekpaDabbU6XKIs6PFDg-65" value="통신 연결, GUI 생성" style="html=1;whiteSpace=wrap;fillColor=#00CCCC;" vertex="1" parent="1">
          <mxGeometry x="1602.5" y="1543" width="110" height="30" as="geometry" />
        </mxCell>
        <mxCell id="RekpaDabbU6XKIs6PFDg-66" style="edgeStyle=orthogonalEdgeStyle;rounded=0;orthogonalLoop=1;jettySize=auto;html=1;entryX=0.5;entryY=0;entryDx=0;entryDy=0;" edge="1" parent="1" source="RekpaDabbU6XKIs6PFDg-67" target="RekpaDabbU6XKIs6PFDg-75">
          <mxGeometry relative="1" as="geometry">
            <Array as="points">
              <mxPoint x="1640" y="1653" />
              <mxPoint x="1368" y="1653" />
            </Array>
          </mxGeometry>
        </mxCell>
        <mxCell id="RekpaDabbU6XKIs6PFDg-67" value="데이터 송수신" style="html=1;whiteSpace=wrap;fillColor=#00CCCC;" vertex="1" parent="1">
          <mxGeometry x="1602.5" y="1593" width="110" height="30" as="geometry" />
        </mxCell>
        <mxCell id="RekpaDabbU6XKIs6PFDg-68" value="" style="rounded=0;whiteSpace=wrap;html=1;fillColor=#FFFFCC;" vertex="1" parent="1">
          <mxGeometry x="1514.5" y="2064" width="202" height="70" as="geometry" />
        </mxCell>
        <mxCell id="RekpaDabbU6XKIs6PFDg-69" value="&lt;span style=&quot;font-size: 10px;&quot;&gt;PRINT LED, ADC&lt;/span&gt;" style="text;html=1;strokeColor=none;fillColor=none;align=center;verticalAlign=middle;whiteSpace=wrap;rounded=0;" vertex="1" parent="1">
          <mxGeometry x="1514.5" y="2039" width="85" height="30" as="geometry" />
        </mxCell>
        <mxCell id="RekpaDabbU6XKIs6PFDg-70" value="&lt;span style=&quot;font-size: 10px;&quot;&gt;RECEIVE DATA&lt;/span&gt;" style="text;html=1;strokeColor=none;fillColor=none;align=center;verticalAlign=middle;whiteSpace=wrap;rounded=0;" vertex="1" parent="1">
          <mxGeometry x="1507.5" y="1673" width="95" height="30" as="geometry" />
        </mxCell>
        <mxCell id="RekpaDabbU6XKIs6PFDg-71" value="" style="edgeStyle=orthogonalEdgeStyle;rounded=0;orthogonalLoop=1;jettySize=auto;html=1;" edge="1" parent="1" source="RekpaDabbU6XKIs6PFDg-72" target="RekpaDabbU6XKIs6PFDg-84">
          <mxGeometry relative="1" as="geometry" />
        </mxCell>
        <mxCell id="RekpaDabbU6XKIs6PFDg-72" value="RECEIVE&amp;nbsp;LED, ADC OUTPUT DATA" style="rounded=0;whiteSpace=wrap;html=1;fillColor=#00CC66;" vertex="1" parent="1">
          <mxGeometry x="1555.5" y="1713" width="120" height="50" as="geometry" />
        </mxCell>
        <mxCell id="RekpaDabbU6XKIs6PFDg-73" value="" style="rounded=0;whiteSpace=wrap;html=1;fillColor=#FFFFCC;" vertex="1" parent="1">
          <mxGeometry x="1268.5" y="1863" width="202" height="130" as="geometry" />
        </mxCell>
        <mxCell id="RekpaDabbU6XKIs6PFDg-74" value="&lt;span style=&quot;font-size: 10px;&quot;&gt;SEND DATA&lt;/span&gt;" style="text;html=1;strokeColor=none;fillColor=none;align=center;verticalAlign=middle;whiteSpace=wrap;rounded=0;" vertex="1" parent="1">
          <mxGeometry x="1268.5" y="1838" width="62" height="30" as="geometry" />
        </mxCell>
        <mxCell id="RekpaDabbU6XKIs6PFDg-75" value="" style="rounded=0;whiteSpace=wrap;html=1;fillColor=#FFFFCC;" vertex="1" parent="1">
          <mxGeometry x="1268.5" y="1698" width="200" height="75" as="geometry" />
        </mxCell>
        <mxCell id="RekpaDabbU6XKIs6PFDg-76" value="&lt;span style=&quot;font-size: 10px;&quot;&gt;P_button&lt;/span&gt;" style="text;html=1;strokeColor=none;fillColor=none;align=center;verticalAlign=middle;whiteSpace=wrap;rounded=0;" vertex="1" parent="1">
          <mxGeometry x="1268.5" y="1673" width="42" height="30" as="geometry" />
        </mxCell>
        <mxCell id="RekpaDabbU6XKIs6PFDg-77" style="edgeStyle=orthogonalEdgeStyle;rounded=0;orthogonalLoop=1;jettySize=auto;html=1;entryX=1;entryY=0.5;entryDx=0;entryDy=0;" edge="1" parent="1" source="RekpaDabbU6XKIs6PFDg-78" target="RekpaDabbU6XKIs6PFDg-24">
          <mxGeometry relative="1" as="geometry">
            <Array as="points">
              <mxPoint x="1351" y="2013" />
              <mxPoint x="870" y="2013" />
              <mxPoint x="870" y="1906" />
            </Array>
          </mxGeometry>
        </mxCell>
        <mxCell id="RekpaDabbU6XKIs6PFDg-78" value="SEND SWITCH&lt;br&gt;INTPUT DATA&lt;span style=&quot;font-size: 11px; background-color: rgb(255, 255, 255);&quot;&gt;&lt;br&gt;&lt;/span&gt;" style="rounded=0;whiteSpace=wrap;html=1;fillColor=#FF9933;" vertex="1" parent="1">
          <mxGeometry x="1290.5" y="1932" width="120" height="30" as="geometry" />
        </mxCell>
        <mxCell id="RekpaDabbU6XKIs6PFDg-79" value="MODBUS-CRC16&lt;br&gt;변환&lt;span style=&quot;font-size: 11px; background-color: rgb(255, 255, 255);&quot;&gt;&lt;br&gt;&lt;/span&gt;" style="rounded=0;whiteSpace=wrap;html=1;fillColor=#00CCCC;" vertex="1" parent="1">
          <mxGeometry x="1290.5" y="1882" width="120" height="36" as="geometry" />
        </mxCell>
        <mxCell id="RekpaDabbU6XKIs6PFDg-80" value="" style="endArrow=classic;html=1;rounded=0;exitX=0.5;exitY=1;exitDx=0;exitDy=0;entryX=0.5;entryY=0;entryDx=0;entryDy=0;" edge="1" parent="1" source="RekpaDabbU6XKIs6PFDg-79" target="RekpaDabbU6XKIs6PFDg-78">
          <mxGeometry width="50" height="50" relative="1" as="geometry">
            <mxPoint x="1360.5" y="2016" as="sourcePoint" />
            <mxPoint x="1360.5" y="2032" as="targetPoint" />
          </mxGeometry>
        </mxCell>
        <mxCell id="RekpaDabbU6XKIs6PFDg-81" value="" style="endArrow=classic;html=1;rounded=0;exitX=0.5;exitY=1;exitDx=0;exitDy=0;entryX=0.711;entryY=0;entryDx=0;entryDy=0;entryPerimeter=0;" edge="1" parent="1" source="RekpaDabbU6XKIs6PFDg-67" target="RekpaDabbU6XKIs6PFDg-4">
          <mxGeometry width="50" height="50" relative="1" as="geometry">
            <mxPoint x="1640.5" y="1683" as="sourcePoint" />
            <mxPoint x="1657.5" y="1698" as="targetPoint" />
            <Array as="points">
              <mxPoint x="1657.5" y="1673" />
              <mxPoint x="1657.5" y="1683" />
            </Array>
          </mxGeometry>
        </mxCell>
        <mxCell id="RekpaDabbU6XKIs6PFDg-82" value="" style="endArrow=classic;html=1;rounded=0;exitX=0.5;exitY=1;exitDx=0;exitDy=0;" edge="1" parent="1" source="RekpaDabbU6XKIs6PFDg-68">
          <mxGeometry width="50" height="50" relative="1" as="geometry">
            <mxPoint x="1620.5" y="1945" as="sourcePoint" />
            <mxPoint x="1657.5" y="1663" as="targetPoint" />
            <Array as="points">
              <mxPoint x="1615.5" y="2143" />
              <mxPoint x="1500.5" y="2143" />
              <mxPoint x="1500.5" y="1663" />
            </Array>
          </mxGeometry>
        </mxCell>
        <mxCell id="RekpaDabbU6XKIs6PFDg-83" value="" style="endArrow=classic;html=1;rounded=0;exitX=0.5;exitY=1;exitDx=0;exitDy=0;" edge="1" parent="1" source="RekpaDabbU6XKIs6PFDg-73">
          <mxGeometry width="50" height="50" relative="1" as="geometry">
            <mxPoint x="1320.5" y="2063" as="sourcePoint" />
            <mxPoint x="1368.5" y="1683" as="targetPoint" />
            <Array as="points">
              <mxPoint x="1369.5" y="2013" />
              <mxPoint x="1480.5" y="2013" />
              <mxPoint x="1480.5" y="1683" />
            </Array>
          </mxGeometry>
        </mxCell>
        <mxCell id="RekpaDabbU6XKIs6PFDg-84" value="MODBUS-CRC16&lt;br style=&quot;border-color: var(--border-color);&quot;&gt;데이터 확인" style="rhombus;whiteSpace=wrap;html=1;fillColor=#00CCCC;" vertex="1" parent="1">
          <mxGeometry x="1534" y="1778" width="163" height="61" as="geometry" />
        </mxCell>
        <mxCell id="RekpaDabbU6XKIs6PFDg-85" value="SWITCH INPUT DATA 생성&lt;span style=&quot;font-size: 11px; background-color: rgb(255, 255, 255);&quot;&gt;&lt;br&gt;&lt;/span&gt;" style="rounded=0;whiteSpace=wrap;html=1;fillColor=#FF99FF;" vertex="1" parent="1">
          <mxGeometry x="1290.5" y="1713" width="120" height="40" as="geometry" />
        </mxCell>
        <mxCell id="RekpaDabbU6XKIs6PFDg-86" value="" style="endArrow=classic;html=1;rounded=0;entryX=0.495;entryY=-0.002;entryDx=0;entryDy=0;entryPerimeter=0;" edge="1" parent="1">
          <mxGeometry width="50" height="50" relative="1" as="geometry">
            <mxPoint x="1348.5" y="1753" as="sourcePoint" />
            <mxPoint x="1348.49" y="1862.74" as="targetPoint" />
          </mxGeometry>
        </mxCell>
        <mxCell id="RekpaDabbU6XKIs6PFDg-87" value="" style="endArrow=classic;html=1;rounded=0;exitX=1;exitY=0.5;exitDx=0;exitDy=0;" edge="1" parent="1" source="RekpaDabbU6XKIs6PFDg-84">
          <mxGeometry width="50" height="50" relative="1" as="geometry">
            <mxPoint x="1720.5" y="1813" as="sourcePoint" />
            <mxPoint x="1657.5" y="1683" as="targetPoint" />
            <Array as="points">
              <mxPoint x="1723.5" y="1809" />
              <mxPoint x="1723.5" y="1683" />
            </Array>
          </mxGeometry>
        </mxCell>
        <mxCell id="RekpaDabbU6XKIs6PFDg-88" value="LED, ADC 화면 표시" style="shape=display;whiteSpace=wrap;html=1;fillColor=#00CCCC;" vertex="1" parent="1">
          <mxGeometry x="1536.5" y="2079" width="153" height="40" as="geometry" />
        </mxCell>
        <mxCell id="RekpaDabbU6XKIs6PFDg-89" value="&lt;font style=&quot;font-size: 48px;&quot;&gt;PC&lt;/font&gt;" style="text;html=1;strokeColor=none;fillColor=none;align=center;verticalAlign=middle;whiteSpace=wrap;rounded=0;" vertex="1" parent="1">
          <mxGeometry x="1269.5" y="1460" width="60" height="30" as="geometry" />
        </mxCell>
        <mxCell id="RekpaDabbU6XKIs6PFDg-90" value="LOOP" style="text;html=1;strokeColor=none;fillColor=none;align=center;verticalAlign=middle;whiteSpace=wrap;rounded=0;" vertex="1" parent="1">
          <mxGeometry x="1389.5" y="1661" width="60" height="30" as="geometry" />
        </mxCell>
        <mxCell id="RekpaDabbU6XKIs6PFDg-91" value="LOOP" style="text;html=1;strokeColor=none;fillColor=none;align=center;verticalAlign=middle;whiteSpace=wrap;rounded=0;" vertex="1" parent="1">
          <mxGeometry x="1660.5" y="1661" width="60" height="30" as="geometry" />
        </mxCell>
        <mxCell id="RekpaDabbU6XKIs6PFDg-92" value="&lt;font style=&quot;font-size: 10px;&quot;&gt;YES&lt;/font&gt;" style="text;html=1;strokeColor=none;fillColor=none;align=center;verticalAlign=middle;whiteSpace=wrap;rounded=0;" vertex="1" parent="1">
          <mxGeometry x="1602.5" y="1830" width="60" height="30" as="geometry" />
        </mxCell>
        <mxCell id="RekpaDabbU6XKIs6PFDg-93" value="&lt;font style=&quot;font-size: 10px;&quot;&gt;NO&lt;/font&gt;" style="text;html=1;strokeColor=none;fillColor=none;align=center;verticalAlign=middle;whiteSpace=wrap;rounded=0;" vertex="1" parent="1">
          <mxGeometry x="1671.5" y="1783" width="60" height="30" as="geometry" />
        </mxCell>
        <mxCell id="RekpaDabbU6XKIs6PFDg-94" value="&lt;font style=&quot;font-size: 10px;&quot;&gt;ADC&lt;/font&gt;" style="text;html=1;strokeColor=none;fillColor=none;align=center;verticalAlign=middle;whiteSpace=wrap;rounded=0;" vertex="1" parent="1">
          <mxGeometry x="1667.5" y="1726" width="60" height="30" as="geometry" />
        </mxCell>
        <mxCell id="RekpaDabbU6XKIs6PFDg-95" value="&lt;span style=&quot;font-size: 10px;&quot;&gt;LED&lt;/span&gt;" style="text;html=1;strokeColor=none;fillColor=none;align=center;verticalAlign=middle;whiteSpace=wrap;rounded=0;" vertex="1" parent="1">
          <mxGeometry x="1668.5" y="1699" width="60" height="30" as="geometry" />
        </mxCell>
        <mxCell id="RekpaDabbU6XKIs6PFDg-96" value="" style="edgeStyle=orthogonalEdgeStyle;rounded=0;orthogonalLoop=1;jettySize=auto;html=1;entryX=1;entryY=0.5;entryDx=0;entryDy=0;entryPerimeter=0;" edge="1" parent="1" source="RekpaDabbU6XKIs6PFDg-97" target="RekpaDabbU6XKIs6PFDg-88">
          <mxGeometry relative="1" as="geometry">
            <Array as="points">
              <mxPoint x="1724.5" y="1891" />
              <mxPoint x="1724.5" y="2099" />
            </Array>
          </mxGeometry>
        </mxCell>
        <mxCell id="RekpaDabbU6XKIs6PFDg-97" value="ADC DATA인지" style="rhombus;whiteSpace=wrap;html=1;fillColor=#00CCCC;" vertex="1" parent="1">
          <mxGeometry x="1534" y="1860" width="163" height="61" as="geometry" />
        </mxCell>
        <mxCell id="RekpaDabbU6XKIs6PFDg-98" value="LED DATA인지" style="rhombus;whiteSpace=wrap;html=1;fillColor=#00CCCC;" vertex="1" parent="1">
          <mxGeometry x="1534" y="1945" width="163" height="61" as="geometry" />
        </mxCell>
        <mxCell id="RekpaDabbU6XKIs6PFDg-99" value="" style="edgeStyle=orthogonalEdgeStyle;rounded=0;orthogonalLoop=1;jettySize=auto;html=1;entryX=0.5;entryY=0;entryDx=0;entryDy=0;" edge="1" parent="1" target="RekpaDabbU6XKIs6PFDg-97">
          <mxGeometry relative="1" as="geometry">
            <mxPoint x="1615.5" y="1839" as="sourcePoint" />
            <mxPoint x="1615.45" y="1834.5" as="targetPoint" />
          </mxGeometry>
        </mxCell>
        <mxCell id="RekpaDabbU6XKIs6PFDg-100" value="&lt;font style=&quot;font-size: 10px;&quot;&gt;NO&lt;/font&gt;" style="text;html=1;strokeColor=none;fillColor=none;align=center;verticalAlign=middle;whiteSpace=wrap;rounded=0;" vertex="1" parent="1">
          <mxGeometry x="1602.5" y="1918" width="60" height="30" as="geometry" />
        </mxCell>
        <mxCell id="RekpaDabbU6XKIs6PFDg-101" value="&lt;font style=&quot;font-size: 10px;&quot;&gt;YES&lt;/font&gt;" style="text;html=1;strokeColor=none;fillColor=none;align=center;verticalAlign=middle;whiteSpace=wrap;rounded=0;" vertex="1" parent="1">
          <mxGeometry x="1671.5" y="1863" width="60" height="30" as="geometry" />
        </mxCell>
        <mxCell id="RekpaDabbU6XKIs6PFDg-102" value="&lt;font style=&quot;font-size: 10px;&quot;&gt;YES&lt;/font&gt;" style="text;html=1;strokeColor=none;fillColor=none;align=center;verticalAlign=middle;whiteSpace=wrap;rounded=0;" vertex="1" parent="1">
          <mxGeometry x="1602.5" y="2006" width="60" height="30" as="geometry" />
        </mxCell>
        <mxCell id="RekpaDabbU6XKIs6PFDg-103" value="&lt;font style=&quot;font-size: 10px;&quot;&gt;NO&lt;/font&gt;" style="text;html=1;strokeColor=none;fillColor=none;align=center;verticalAlign=middle;whiteSpace=wrap;rounded=0;" vertex="1" parent="1">
          <mxGeometry x="1500.5" y="1948" width="60" height="30" as="geometry" />
        </mxCell>
        <mxCell id="RekpaDabbU6XKIs6PFDg-104" value="" style="edgeStyle=orthogonalEdgeStyle;rounded=0;orthogonalLoop=1;jettySize=auto;html=1;" edge="1" parent="1">
          <mxGeometry relative="1" as="geometry">
            <mxPoint x="1615.5" y="1921" as="sourcePoint" />
            <mxPoint x="1615.5" y="1945" as="targetPoint" />
          </mxGeometry>
        </mxCell>
        <mxCell id="RekpaDabbU6XKIs6PFDg-105" value="" style="edgeStyle=orthogonalEdgeStyle;rounded=0;orthogonalLoop=1;jettySize=auto;html=1;entryX=0.515;entryY=0.001;entryDx=0;entryDy=0;entryPerimeter=0;" edge="1" parent="1" target="RekpaDabbU6XKIs6PFDg-88">
          <mxGeometry relative="1" as="geometry">
            <mxPoint x="1615.42" y="2006" as="sourcePoint" />
            <mxPoint x="1615.42" y="2030" as="targetPoint" />
          </mxGeometry>
        </mxCell>
        <mxCell id="RekpaDabbU6XKIs6PFDg-106" value="" style="endArrow=classic;html=1;rounded=0;" edge="1" parent="1">
          <mxGeometry width="50" height="50" relative="1" as="geometry">
            <mxPoint x="1535.5" y="1976" as="sourcePoint" />
            <mxPoint x="1657.5" y="1674" as="targetPoint" />
            <Array as="points">
              <mxPoint x="1508.5" y="1976" />
              <mxPoint x="1509.5" y="1673" />
            </Array>
          </mxGeometry>
        </mxCell>
        <mxCell id="RekpaDabbU6XKIs6PFDg-107" value="" style="edgeStyle=orthogonalEdgeStyle;rounded=0;orthogonalLoop=1;jettySize=auto;html=1;" edge="1" parent="1" source="RekpaDabbU6XKIs6PFDg-108" target="RekpaDabbU6XKIs6PFDg-132">
          <mxGeometry relative="1" as="geometry" />
        </mxCell>
        <mxCell id="RekpaDabbU6XKIs6PFDg-108" value="Master Start" style="ellipse;whiteSpace=wrap;html=1;fillColor=#FFFFFF;" vertex="1" parent="1">
          <mxGeometry x="325.18" y="1470" width="120" height="40" as="geometry" />
        </mxCell>
        <mxCell id="RekpaDabbU6XKIs6PFDg-109" style="edgeStyle=orthogonalEdgeStyle;rounded=0;orthogonalLoop=1;jettySize=auto;html=1;entryX=0.5;entryY=0;entryDx=0;entryDy=0;" edge="1" parent="1" source="RekpaDabbU6XKIs6PFDg-112" target="RekpaDabbU6XKIs6PFDg-115">
          <mxGeometry relative="1" as="geometry" />
        </mxCell>
        <mxCell id="RekpaDabbU6XKIs6PFDg-110" style="edgeStyle=orthogonalEdgeStyle;rounded=0;orthogonalLoop=1;jettySize=auto;html=1;entryX=0.5;entryY=0;entryDx=0;entryDy=0;" edge="1" parent="1" source="RekpaDabbU6XKIs6PFDg-112" target="RekpaDabbU6XKIs6PFDg-143">
          <mxGeometry relative="1" as="geometry" />
        </mxCell>
        <mxCell id="RekpaDabbU6XKIs6PFDg-111" style="edgeStyle=orthogonalEdgeStyle;rounded=0;orthogonalLoop=1;jettySize=auto;html=1;entryX=0.5;entryY=0;entryDx=0;entryDy=0;" edge="1" parent="1" source="RekpaDabbU6XKIs6PFDg-112" target="RekpaDabbU6XKIs6PFDg-154">
          <mxGeometry relative="1" as="geometry">
            <Array as="points">
              <mxPoint x="385" y="1660" />
              <mxPoint x="549" y="1660" />
            </Array>
          </mxGeometry>
        </mxCell>
        <mxCell id="RekpaDabbU6XKIs6PFDg-112" value="타이머 실행" style="html=1;whiteSpace=wrap;fillColor=#00CCCC;" vertex="1" parent="1">
          <mxGeometry x="330.18" y="1590" width="110" height="40" as="geometry" />
        </mxCell>
        <mxCell id="RekpaDabbU6XKIs6PFDg-113" value="" style="rounded=0;whiteSpace=wrap;html=1;fillColor=#FFFFCC;" vertex="1" parent="1">
          <mxGeometry x="76.68" y="1818" width="202" height="302" as="geometry" />
        </mxCell>
        <mxCell id="RekpaDabbU6XKIs6PFDg-114" value="&lt;font style=&quot;font-size: 10px;&quot;&gt;Interrupt routine&lt;/font&gt;" style="text;html=1;strokeColor=none;fillColor=none;align=center;verticalAlign=middle;whiteSpace=wrap;rounded=0;" vertex="1" parent="1">
          <mxGeometry x="76.68" y="1793" width="80" height="30" as="geometry" />
        </mxCell>
        <mxCell id="RekpaDabbU6XKIs6PFDg-115" value="" style="rounded=0;whiteSpace=wrap;html=1;fillColor=#FFFFCC;" vertex="1" parent="1">
          <mxGeometry x="76.68" y="1653" width="200" height="140" as="geometry" />
        </mxCell>
        <mxCell id="RekpaDabbU6XKIs6PFDg-116" value="Timer overflow" style="rhombus;whiteSpace=wrap;html=1;fillColor=#00CCCC;" vertex="1" parent="1">
          <mxGeometry x="98.68" y="1718" width="120" height="55" as="geometry" />
        </mxCell>
        <mxCell id="RekpaDabbU6XKIs6PFDg-117" value="Timer increase" style="rounded=0;whiteSpace=wrap;html=1;fillColor=#00CCCC;" vertex="1" parent="1">
          <mxGeometry x="98.68" y="1668" width="120" height="30" as="geometry" />
        </mxCell>
        <mxCell id="RekpaDabbU6XKIs6PFDg-118" value="" style="endArrow=classic;html=1;rounded=0;exitX=0.5;exitY=1;exitDx=0;exitDy=0;" edge="1" parent="1" source="RekpaDabbU6XKIs6PFDg-116">
          <mxGeometry relative="1" as="geometry">
            <mxPoint x="78.68" y="1788" as="sourcePoint" />
            <mxPoint x="158.68" y="1818" as="targetPoint" />
          </mxGeometry>
        </mxCell>
        <mxCell id="RekpaDabbU6XKIs6PFDg-119" value="" style="endArrow=classic;html=1;rounded=0;exitX=1;exitY=0.5;exitDx=0;exitDy=0;entryX=1;entryY=0.5;entryDx=0;entryDy=0;" edge="1" parent="1" source="RekpaDabbU6XKIs6PFDg-116" target="RekpaDabbU6XKIs6PFDg-124">
          <mxGeometry relative="1" as="geometry">
            <mxPoint x="88.68" y="1778" as="sourcePoint" />
            <mxPoint x="258.68" y="1746" as="targetPoint" />
            <Array as="points">
              <mxPoint x="256.68" y="1746" />
              <mxPoint x="256.68" y="1683" />
            </Array>
          </mxGeometry>
        </mxCell>
        <mxCell id="RekpaDabbU6XKIs6PFDg-120" value="&lt;span style=&quot;font-size: 10px;&quot;&gt;NO&lt;/span&gt;" style="text;html=1;strokeColor=none;fillColor=none;align=center;verticalAlign=middle;whiteSpace=wrap;rounded=0;" vertex="1" parent="1">
          <mxGeometry x="206.68" y="1720" width="60" height="30" as="geometry" />
        </mxCell>
        <mxCell id="RekpaDabbU6XKIs6PFDg-121" value="&lt;span style=&quot;font-size: 10px;&quot;&gt;YES&lt;/span&gt;" style="text;html=1;strokeColor=none;fillColor=none;align=center;verticalAlign=middle;whiteSpace=wrap;rounded=0;" vertex="1" parent="1">
          <mxGeometry x="146.68" y="1767" width="60" height="30" as="geometry" />
        </mxCell>
        <mxCell id="RekpaDabbU6XKIs6PFDg-122" value="&lt;font style=&quot;font-size: 10px;&quot;&gt;Timer_1&lt;/font&gt;" style="text;html=1;strokeColor=none;fillColor=none;align=center;verticalAlign=middle;whiteSpace=wrap;rounded=0;" vertex="1" parent="1">
          <mxGeometry x="76.68" y="1628" width="90" height="30" as="geometry" />
        </mxCell>
        <mxCell id="RekpaDabbU6XKIs6PFDg-123" value="Timer overflow" style="rhombus;whiteSpace=wrap;html=1;fillColor=#00CCCC;" vertex="1" parent="1">
          <mxGeometry x="98.68" y="1718" width="120" height="55" as="geometry" />
        </mxCell>
        <mxCell id="RekpaDabbU6XKIs6PFDg-124" value="Timer increase" style="rounded=0;whiteSpace=wrap;html=1;fillColor=#00CCCC;" vertex="1" parent="1">
          <mxGeometry x="98.68" y="1668" width="120" height="30" as="geometry" />
        </mxCell>
        <mxCell id="RekpaDabbU6XKIs6PFDg-125" value="Watchdog 체크" style="rounded=0;whiteSpace=wrap;html=1;fillColor=#00CCCC;" vertex="1" parent="1">
          <mxGeometry x="98.68" y="1833" width="120" height="40" as="geometry" />
        </mxCell>
        <mxCell id="RekpaDabbU6XKIs6PFDg-126" value="" style="endArrow=classic;html=1;rounded=0;exitX=0.5;exitY=1;exitDx=0;exitDy=0;entryX=0.5;entryY=0;entryDx=0;entryDy=0;" edge="1" parent="1" source="RekpaDabbU6XKIs6PFDg-124" target="RekpaDabbU6XKIs6PFDg-123">
          <mxGeometry width="50" height="50" relative="1" as="geometry">
            <mxPoint x="178.68" y="1793" as="sourcePoint" />
            <mxPoint x="228.68" y="1743" as="targetPoint" />
          </mxGeometry>
        </mxCell>
        <mxCell id="RekpaDabbU6XKIs6PFDg-127" value="" style="edgeStyle=orthogonalEdgeStyle;rounded=0;orthogonalLoop=1;jettySize=auto;html=1;" edge="1" parent="1" source="RekpaDabbU6XKIs6PFDg-129" target="RekpaDabbU6XKIs6PFDg-135">
          <mxGeometry relative="1" as="geometry" />
        </mxCell>
        <mxCell id="RekpaDabbU6XKIs6PFDg-128" style="edgeStyle=orthogonalEdgeStyle;rounded=0;orthogonalLoop=1;jettySize=auto;html=1;entryX=0;entryY=0.25;entryDx=0;entryDy=0;" edge="1" parent="1" source="RekpaDabbU6XKIs6PFDg-129" target="RekpaDabbU6XKIs6PFDg-163">
          <mxGeometry relative="1" as="geometry">
            <Array as="points">
              <mxPoint x="240" y="1904" />
              <mxPoint x="240" y="2070" />
              <mxPoint x="460" y="2070" />
              <mxPoint x="460" y="1969" />
            </Array>
          </mxGeometry>
        </mxCell>
        <mxCell id="RekpaDabbU6XKIs6PFDg-129" value="ADC DATA 생성&lt;span style=&quot;font-size: 11px; background-color: rgb(255, 255, 255);&quot;&gt;&lt;br&gt;&lt;/span&gt;" style="rounded=0;whiteSpace=wrap;html=1;fillColor=#FF99FF;" vertex="1" parent="1">
          <mxGeometry x="98.68" y="1886" width="120" height="36" as="geometry" />
        </mxCell>
        <mxCell id="RekpaDabbU6XKIs6PFDg-130" value="" style="endArrow=classic;html=1;rounded=0;exitX=0.5;exitY=1;exitDx=0;exitDy=0;" edge="1" parent="1" source="RekpaDabbU6XKIs6PFDg-125" target="RekpaDabbU6XKIs6PFDg-129">
          <mxGeometry width="50" height="50" relative="1" as="geometry">
            <mxPoint x="-43.32" y="1883" as="sourcePoint" />
            <mxPoint x="-43.32" y="1897" as="targetPoint" />
          </mxGeometry>
        </mxCell>
        <mxCell id="RekpaDabbU6XKIs6PFDg-131" style="edgeStyle=orthogonalEdgeStyle;rounded=0;orthogonalLoop=1;jettySize=auto;html=1;entryX=0.5;entryY=0;entryDx=0;entryDy=0;" edge="1" parent="1" source="RekpaDabbU6XKIs6PFDg-132" target="RekpaDabbU6XKIs6PFDg-112">
          <mxGeometry relative="1" as="geometry" />
        </mxCell>
        <mxCell id="RekpaDabbU6XKIs6PFDg-132" value="INITIALIZE,PIN,&lt;br&gt;watchdog설정" style="html=1;whiteSpace=wrap;fillColor=#00CCCC;" vertex="1" parent="1">
          <mxGeometry x="330.18" y="1530" width="110" height="40" as="geometry" />
        </mxCell>
        <mxCell id="RekpaDabbU6XKIs6PFDg-133" value="LOOP" style="text;html=1;strokeColor=none;fillColor=none;align=center;verticalAlign=middle;whiteSpace=wrap;rounded=0;" vertex="1" parent="1">
          <mxGeometry x="206.68" y="1610" width="60" height="30" as="geometry" />
        </mxCell>
        <mxCell id="RekpaDabbU6XKIs6PFDg-134" value="" style="edgeStyle=orthogonalEdgeStyle;rounded=0;orthogonalLoop=1;jettySize=auto;html=1;" edge="1" parent="1" source="RekpaDabbU6XKIs6PFDg-135" target="RekpaDabbU6XKIs6PFDg-138">
          <mxGeometry relative="1" as="geometry" />
        </mxCell>
        <mxCell id="RekpaDabbU6XKIs6PFDg-135" value="SWITCH INPUT DATA 변환&lt;span style=&quot;font-size: 11px; background-color: rgb(255, 255, 255);&quot;&gt;&lt;br&gt;&lt;/span&gt;" style="rounded=0;whiteSpace=wrap;html=1;fillColor=#00CCCC;" vertex="1" parent="1">
          <mxGeometry x="98.68" y="1935" width="120" height="36" as="geometry" />
        </mxCell>
        <mxCell id="RekpaDabbU6XKIs6PFDg-136" value="&lt;span style=&quot;font-size: 48px;&quot;&gt;Slave&lt;/span&gt;" style="text;html=1;strokeColor=none;fillColor=none;align=center;verticalAlign=middle;whiteSpace=wrap;rounded=0;" vertex="1" parent="1">
          <mxGeometry x="100" y="1460" width="60" height="30" as="geometry" />
        </mxCell>
        <mxCell id="RekpaDabbU6XKIs6PFDg-137" value="" style="edgeStyle=orthogonalEdgeStyle;rounded=0;orthogonalLoop=1;jettySize=auto;html=1;" edge="1" parent="1" source="RekpaDabbU6XKIs6PFDg-138" target="RekpaDabbU6XKIs6PFDg-140">
          <mxGeometry relative="1" as="geometry" />
        </mxCell>
        <mxCell id="RekpaDabbU6XKIs6PFDg-138" value="LED 제어&lt;span style=&quot;font-size: 11px; background-color: rgb(255, 255, 255);&quot;&gt;&lt;br&gt;&lt;/span&gt;" style="rounded=0;whiteSpace=wrap;html=1;fillColor=#00CCCC;" vertex="1" parent="1">
          <mxGeometry x="98.68" y="1984" width="120" height="36" as="geometry" />
        </mxCell>
        <mxCell id="RekpaDabbU6XKIs6PFDg-139" style="edgeStyle=orthogonalEdgeStyle;rounded=0;orthogonalLoop=1;jettySize=auto;html=1;entryX=0;entryY=0.75;entryDx=0;entryDy=0;" edge="1" parent="1" source="RekpaDabbU6XKIs6PFDg-140" target="RekpaDabbU6XKIs6PFDg-163">
          <mxGeometry relative="1" as="geometry">
            <Array as="points">
              <mxPoint x="159" y="2080" />
              <mxPoint x="470" y="2080" />
              <mxPoint x="470" y="1993" />
            </Array>
          </mxGeometry>
        </mxCell>
        <mxCell id="RekpaDabbU6XKIs6PFDg-140" value="BUTTON DATA 생성&lt;span style=&quot;font-size: 11px; background-color: rgb(255, 255, 255);&quot;&gt;&lt;br&gt;&lt;/span&gt;" style="rounded=0;whiteSpace=wrap;html=1;fillColor=#FF99FF;" vertex="1" parent="1">
          <mxGeometry x="98.68" y="2035" width="120" height="36" as="geometry" />
        </mxCell>
        <mxCell id="RekpaDabbU6XKIs6PFDg-141" style="edgeStyle=orthogonalEdgeStyle;rounded=0;orthogonalLoop=1;jettySize=auto;html=1;entryX=0.5;entryY=0;entryDx=0;entryDy=0;" edge="1" parent="1" source="RekpaDabbU6XKIs6PFDg-143" target="RekpaDabbU6XKIs6PFDg-146">
          <mxGeometry relative="1" as="geometry" />
        </mxCell>
        <mxCell id="RekpaDabbU6XKIs6PFDg-142" style="edgeStyle=orthogonalEdgeStyle;rounded=0;orthogonalLoop=1;jettySize=auto;html=1;" edge="1" parent="1" source="RekpaDabbU6XKIs6PFDg-143">
          <mxGeometry relative="1" as="geometry">
            <mxPoint x="385.75" y="1690" as="targetPoint" />
            <Array as="points">
              <mxPoint x="467" y="1751" />
              <mxPoint x="467" y="1690" />
            </Array>
          </mxGeometry>
        </mxCell>
        <mxCell id="RekpaDabbU6XKIs6PFDg-143" value="MASTER에서 &lt;br&gt;데이터 송신될 때" style="rhombus;whiteSpace=wrap;html=1;fillColor=#00CCCC;" vertex="1" parent="1">
          <mxGeometry x="314.5" y="1715.5" width="142.5" height="70.5" as="geometry" />
        </mxCell>
        <mxCell id="RekpaDabbU6XKIs6PFDg-144" value="&lt;span style=&quot;font-size: 10px;&quot;&gt;NO&lt;/span&gt;" style="text;html=1;strokeColor=none;fillColor=none;align=center;verticalAlign=middle;whiteSpace=wrap;rounded=0;" vertex="1" parent="1">
          <mxGeometry x="414" y="1715.5" width="60" height="30" as="geometry" />
        </mxCell>
        <mxCell id="RekpaDabbU6XKIs6PFDg-145" style="edgeStyle=orthogonalEdgeStyle;rounded=0;orthogonalLoop=1;jettySize=auto;html=1;entryX=0.5;entryY=0;entryDx=0;entryDy=0;" edge="1" parent="1" source="RekpaDabbU6XKIs6PFDg-146" target="RekpaDabbU6XKIs6PFDg-149">
          <mxGeometry relative="1" as="geometry" />
        </mxCell>
        <mxCell id="RekpaDabbU6XKIs6PFDg-146" value="Ring-Buffer에 &lt;br&gt;SLAVE에서 받은 통신 내용 저장" style="rounded=0;whiteSpace=wrap;html=1;fillColor=#00CCCC;" vertex="1" parent="1">
          <mxGeometry x="326.18" y="1816" width="120" height="60" as="geometry" />
        </mxCell>
        <mxCell id="RekpaDabbU6XKIs6PFDg-147" value="&lt;span style=&quot;font-size: 10px;&quot;&gt;YES&lt;/span&gt;" style="text;html=1;strokeColor=none;fillColor=none;align=center;verticalAlign=middle;whiteSpace=wrap;rounded=0;" vertex="1" parent="1">
          <mxGeometry x="358.18" y="1786" width="25" height="30" as="geometry" />
        </mxCell>
        <mxCell id="RekpaDabbU6XKIs6PFDg-148" value="" style="edgeStyle=orthogonalEdgeStyle;rounded=0;orthogonalLoop=1;jettySize=auto;html=1;" edge="1" parent="1" source="RekpaDabbU6XKIs6PFDg-149" target="RekpaDabbU6XKIs6PFDg-152">
          <mxGeometry relative="1" as="geometry" />
        </mxCell>
        <mxCell id="RekpaDabbU6XKIs6PFDg-149" value="MODBUS-CRC16 &lt;br&gt;확인" style="rounded=0;whiteSpace=wrap;html=1;fillColor=#00CCCC;" vertex="1" parent="1">
          <mxGeometry x="326.18" y="1896" width="120" height="40" as="geometry" />
        </mxCell>
        <mxCell id="RekpaDabbU6XKIs6PFDg-150" style="edgeStyle=orthogonalEdgeStyle;rounded=0;orthogonalLoop=1;jettySize=auto;html=1;entryX=1;entryY=0.5;entryDx=0;entryDy=0;" edge="1" parent="1" source="RekpaDabbU6XKIs6PFDg-152" target="RekpaDabbU6XKIs6PFDg-135">
          <mxGeometry relative="1" as="geometry" />
        </mxCell>
        <mxCell id="RekpaDabbU6XKIs6PFDg-151" style="edgeStyle=orthogonalEdgeStyle;rounded=0;orthogonalLoop=1;jettySize=auto;html=1;" edge="1" parent="1" source="RekpaDabbU6XKIs6PFDg-152">
          <mxGeometry relative="1" as="geometry">
            <mxPoint x="550" y="2016" as="targetPoint" />
            <Array as="points">
              <mxPoint x="386" y="2016" />
            </Array>
          </mxGeometry>
        </mxCell>
        <mxCell id="RekpaDabbU6XKIs6PFDg-152" value="SWITCH INPUT DATA 저장" style="rounded=0;whiteSpace=wrap;html=1;fillColor=#00CCCC;" vertex="1" parent="1">
          <mxGeometry x="326.18" y="1954" width="120" height="50" as="geometry" />
        </mxCell>
        <mxCell id="RekpaDabbU6XKIs6PFDg-153" style="edgeStyle=orthogonalEdgeStyle;rounded=0;orthogonalLoop=1;jettySize=auto;html=1;entryX=0.5;entryY=0;entryDx=0;entryDy=0;" edge="1" parent="1" source="RekpaDabbU6XKIs6PFDg-154" target="RekpaDabbU6XKIs6PFDg-157">
          <mxGeometry relative="1" as="geometry" />
        </mxCell>
        <mxCell id="RekpaDabbU6XKIs6PFDg-154" value="MASTER에서 &lt;br&gt;데이터 호출될 때" style="rhombus;whiteSpace=wrap;html=1;fillColor=#00CCCC;" vertex="1" parent="1">
          <mxGeometry x="477.5" y="1715.5" width="142.5" height="70.5" as="geometry" />
        </mxCell>
        <mxCell id="RekpaDabbU6XKIs6PFDg-155" value="&lt;span style=&quot;font-size: 10px;&quot;&gt;NO&lt;/span&gt;" style="text;html=1;strokeColor=none;fillColor=none;align=center;verticalAlign=middle;whiteSpace=wrap;rounded=0;" vertex="1" parent="1">
          <mxGeometry x="577" y="1715.5" width="60" height="30" as="geometry" />
        </mxCell>
        <mxCell id="RekpaDabbU6XKIs6PFDg-156" style="edgeStyle=orthogonalEdgeStyle;rounded=0;orthogonalLoop=1;jettySize=auto;html=1;entryX=0.5;entryY=0;entryDx=0;entryDy=0;" edge="1" parent="1" source="RekpaDabbU6XKIs6PFDg-157" target="RekpaDabbU6XKIs6PFDg-160">
          <mxGeometry relative="1" as="geometry" />
        </mxCell>
        <mxCell id="RekpaDabbU6XKIs6PFDg-157" value="Ring-Buffer에 &lt;br&gt;SLAVE에서 받은 통신 내용 저장" style="rounded=0;whiteSpace=wrap;html=1;fillColor=#FF0080;" vertex="1" parent="1">
          <mxGeometry x="489.18" y="1816" width="120" height="60" as="geometry" />
        </mxCell>
        <mxCell id="RekpaDabbU6XKIs6PFDg-158" value="&lt;span style=&quot;font-size: 10px;&quot;&gt;YES&lt;/span&gt;" style="text;html=1;strokeColor=none;fillColor=none;align=center;verticalAlign=middle;whiteSpace=wrap;rounded=0;" vertex="1" parent="1">
          <mxGeometry x="521.1800000000001" y="1786" width="25" height="30" as="geometry" />
        </mxCell>
        <mxCell id="RekpaDabbU6XKIs6PFDg-159" value="" style="edgeStyle=orthogonalEdgeStyle;rounded=0;orthogonalLoop=1;jettySize=auto;html=1;" edge="1" parent="1" source="RekpaDabbU6XKIs6PFDg-160" target="RekpaDabbU6XKIs6PFDg-163">
          <mxGeometry relative="1" as="geometry" />
        </mxCell>
        <mxCell id="RekpaDabbU6XKIs6PFDg-160" value="MODBUS-CRC16&lt;br style=&quot;border-color: var(--border-color);&quot;&gt;변환" style="rounded=0;whiteSpace=wrap;html=1;fillColor=#00CCCC;" vertex="1" parent="1">
          <mxGeometry x="489.18" y="1896" width="120" height="40" as="geometry" />
        </mxCell>
        <mxCell id="RekpaDabbU6XKIs6PFDg-161" style="edgeStyle=orthogonalEdgeStyle;rounded=0;orthogonalLoop=1;jettySize=auto;html=1;" edge="1" parent="1" source="RekpaDabbU6XKIs6PFDg-163">
          <mxGeometry relative="1" as="geometry">
            <mxPoint x="630" y="1751" as="targetPoint" />
            <Array as="points">
              <mxPoint x="549" y="2016" />
              <mxPoint x="630" y="2016" />
            </Array>
          </mxGeometry>
        </mxCell>
        <mxCell id="RekpaDabbU6XKIs6PFDg-162" style="edgeStyle=orthogonalEdgeStyle;rounded=0;orthogonalLoop=1;jettySize=auto;html=1;entryX=1;entryY=0.5;entryDx=0;entryDy=0;" edge="1" parent="1" source="RekpaDabbU6XKIs6PFDg-163" target="RekpaDabbU6XKIs6PFDg-55">
          <mxGeometry relative="1" as="geometry">
            <mxPoint x="980" y="2120" as="targetPoint" />
            <Array as="points">
              <mxPoint x="549" y="2140" />
              <mxPoint x="1218" y="2140" />
              <mxPoint x="1218" y="1800" />
            </Array>
          </mxGeometry>
        </mxCell>
        <mxCell id="RekpaDabbU6XKIs6PFDg-163" value="MASTER에 ADC, BUTTON DATA 송신" style="rounded=0;whiteSpace=wrap;html=1;fillColor=#FFFF33;" vertex="1" parent="1">
          <mxGeometry x="489.18" y="1956" width="120" height="50" as="geometry" />
        </mxCell>
        <mxCell id="RekpaDabbU6XKIs6PFDg-164" value="" style="edgeStyle=orthogonalEdgeStyle;rounded=0;orthogonalLoop=1;jettySize=auto;html=1;" edge="1" parent="1" source="RekpaDabbU6XKIs6PFDg-165" target="RekpaDabbU6XKIs6PFDg-53">
          <mxGeometry relative="1" as="geometry" />
        </mxCell>
        <mxCell id="RekpaDabbU6XKIs6PFDg-165" value="MODBUS-CRC16&lt;br style=&quot;border-color: var(--border-color);&quot;&gt;변환" style="rounded=0;whiteSpace=wrap;html=1;fillColor=#00CCCC;" vertex="1" parent="1">
          <mxGeometry x="941" y="1778" width="120" height="40" as="geometry" />
        </mxCell>
        <mxCell id="RekpaDabbU6XKIs6PFDg-166" value="" style="endArrow=classic;html=1;rounded=0;exitX=1;exitY=0.5;exitDx=0;exitDy=0;" edge="1" parent="1" source="RekpaDabbU6XKIs6PFDg-154">
          <mxGeometry width="50" height="50" relative="1" as="geometry">
            <mxPoint x="490" y="1740" as="sourcePoint" />
            <mxPoint x="466" y="1690" as="targetPoint" />
            <Array as="points">
              <mxPoint x="630" y="1751" />
              <mxPoint x="630" y="1690" />
            </Array>
          </mxGeometry>
        </mxCell>
        <mxCell id="RekpaDabbU6XKIs6PFDg-167" value="LOOP" style="text;html=1;strokeColor=none;fillColor=none;align=center;verticalAlign=middle;whiteSpace=wrap;rounded=0;" vertex="1" parent="1">
          <mxGeometry x="436" y="1665" width="60" height="30" as="geometry" />
        </mxCell>
        <mxCell id="RekpaDabbU6XKIs6PFDg-168" value="&lt;font style=&quot;font-size: 14px;&quot;&gt;&lt;b&gt;DATA 생성&lt;/b&gt;&lt;/font&gt;&lt;span style=&quot;font-size: 11px; background-color: rgb(255, 255, 255);&quot;&gt;&lt;br&gt;&lt;/span&gt;" style="rounded=0;whiteSpace=wrap;html=1;fillColor=#FF99FF;" vertex="1" parent="1">
          <mxGeometry x="1460.5" y="1460" width="120" height="54" as="geometry" />
        </mxCell>
        <mxCell id="RekpaDabbU6XKIs6PFDg-169" value="&lt;font style=&quot;font-size: 14px;&quot;&gt;&lt;b&gt;SLAVE to MASTER&lt;/b&gt;&lt;/font&gt;" style="rounded=0;whiteSpace=wrap;html=1;fillColor=#FFFF33;" vertex="1" parent="1">
          <mxGeometry x="1330.5" y="1519" width="120" height="50" as="geometry" />
        </mxCell>
        <mxCell id="RekpaDabbU6XKIs6PFDg-170" value="&lt;font style=&quot;font-size: 14px;&quot;&gt;&lt;b&gt;MASTER to&amp;nbsp;SLAVE&lt;/b&gt;&lt;/font&gt;" style="rounded=0;whiteSpace=wrap;html=1;fillColor=#FF0080;" vertex="1" parent="1">
          <mxGeometry x="1331" y="1574" width="120" height="54" as="geometry" />
        </mxCell>
        <mxCell id="RekpaDabbU6XKIs6PFDg-171" value="&lt;font style=&quot;font-size: 14px;&quot;&gt;&lt;b&gt;MASTER to PC&lt;/b&gt;&lt;/font&gt;&lt;span style=&quot;font-size: 11px; background-color: rgb(255, 255, 255);&quot;&gt;&lt;br&gt;&lt;/span&gt;" style="rounded=0;whiteSpace=wrap;html=1;fillColor=#00CC66;" vertex="1" parent="1">
          <mxGeometry x="1460.5" y="1519" width="120" height="50" as="geometry" />
        </mxCell>
        <mxCell id="RekpaDabbU6XKIs6PFDg-172" value="&lt;b&gt;&lt;font style=&quot;font-size: 14px;&quot;&gt;PC to Master&lt;/font&gt;&lt;/b&gt;&lt;span style=&quot;font-size: 11px; background-color: rgb(255, 255, 255);&quot;&gt;&lt;br&gt;&lt;/span&gt;" style="rounded=0;whiteSpace=wrap;html=1;fillColor=#FF9933;" vertex="1" parent="1">
          <mxGeometry x="1460.5" y="1574" width="120" height="54" as="geometry" />
        </mxCell>
      </root>
    </mxGraphModel>
  </diagram>
</mxfile>
